<svg xmlns="http://www.w3.org/2000/svg" width="1024" height="1024" viewBox="0 0 1024 1024">
  <rect width="1024" height="1024" rx="232" fill="#faf7f1"/>
  <circle cx="512" cy="512" r="384" fill="none" stroke="#20212b" stroke-width="20"/><circle cx="512" cy="512" r="250" fill="none" stroke="#20212b" stroke-width="20"/><line x1="512" y1="60" x2="512" y2="104" stroke="#20212b" stroke-width="20" stroke-linecap="round"/><line x1="512" y1="920" x2="512" y2="964" stroke="#20212b" stroke-width="20" stroke-linecap="round"/><line x1="60" y1="512" x2="104" y2="512" stroke="#20212b" stroke-width="20" stroke-linecap="round"/><line x1="920" y1="512" x2="964" y2="512" stroke="#20212b" stroke-width="20" stroke-linecap="round"/>
  <g transform="translate(512 512) scale(0.5) translate(-512 -513)"><path d="M 512 236 L 792 790 L 668 790 L 556 628 L 468 628 L 356 790 L 232 790 Z M 512 398 L 552 556 Q 512 572 472 556 Z" fill="#20212b" fill-rule="evenodd"/></g>
  <path d="M 575.3370038372564 423.76732714326556 L 829.670358645108 179.21602444340826 L 842.1463155376401 192.19101961164168 L 587.8129607297885 436.7423223114989 Z" fill="#ef9d24"/><polyline points="820.9371888203355,155.70577678814774 824.3750080529444,196.79326148755354 865.2961466604497,201.83909294186654" fill="none" stroke="#ef9d24" stroke-width="14" stroke-linecap="round" stroke-linejoin="round"/><polyline points="789.2205339646538,186.20256030322625 792.6583531972626,227.29004500263204 833.579491804768,232.33587645694504" fill="none" stroke="#ef9d24" stroke-width="14" stroke-linecap="round" stroke-linejoin="round"/><path d="M 534 476 L 571.3169732829961 376.30324225434333 L 581.5749822835224 430.25482472738224 L 635.0829751781603 442.6198842253141 Z" fill="#ef9d24"/>
</svg>