<svg xmlns="http://www.w3.org/2000/svg" width="1200" height="630" viewBox="0 0 1200 630" role="img" aria-label="Admiscible">
  <rect width="1200" height="630" fill="#f7f9fc"/>
  <rect x="72" y="72" width="1056" height="486" rx="34" fill="#ffffff" stroke="#d8e0ea" stroke-width="2"/>
  <rect x="120" y="142" width="120" height="120" rx="30" fill="#071f4f"/>
  <path d="M151 235L176 169" fill="none" stroke="#2f6bff" stroke-width="17" stroke-linecap="round" stroke-linejoin="round"/>
  <path d="M209 235L184 169" fill="none" stroke="#e6404b" stroke-width="17" stroke-linecap="round" stroke-linejoin="round"/>
  <path d="M166 211H194" fill="none" stroke="#ffffff" stroke-width="15" stroke-linecap="round"/>
  <text x="270" y="205" font-family="Marianne, Arial, sans-serif" font-size="62" font-weight="800" fill="#071f4f">Admiscible</text>
  <text x="272" y="254" font-family="Marianne, Arial, sans-serif" font-size="25" font-weight="700" fill="#123b7a">Contenus gratuits</text>
  <text x="120" y="350" font-family="Marianne, Arial, sans-serif" font-size="38" font-weight="800" fill="#161616">Cours, méthodes, exercices et outils de travail.</text>
  <text x="120" y="404" font-family="Marianne, Arial, sans-serif" font-size="25" font-weight="400" fill="#3a3a3a">Du collège aux classes préparatoires.</text>
  <text x="120" y="438" font-family="Marianne, Arial, sans-serif" font-size="25" font-weight="400" fill="#3a3a3a">Un parcours guidé pour élèves, parents, enseignants et établissements.</text>
  <g>
    <rect x="120" y="468" width="134" height="42" rx="21" fill="#eef4ff" stroke="#b7cff8"/>
    <text x="187" y="496" text-anchor="middle" font-family="Marianne, Arial, sans-serif" font-size="17" font-weight="800" fill="#123b7a">Cours</text>
    <rect x="270" y="468" width="152" height="42" rx="21" fill="#eef4ff" stroke="#b7cff8"/>
    <text x="346" y="496" text-anchor="middle" font-family="Marianne, Arial, sans-serif" font-size="17" font-weight="800" fill="#123b7a">Méthodes</text>
    <rect x="438" y="468" width="148" height="42" rx="21" fill="#eef4ff" stroke="#b7cff8"/>
    <text x="512" y="496" text-anchor="middle" font-family="Marianne, Arial, sans-serif" font-size="17" font-weight="800" fill="#123b7a">Exercices</text>
    <rect x="602" y="468" width="190" height="42" rx="21" fill="#eef4ff" stroke="#b7cff8"/>
    <text x="697" y="496" text-anchor="middle" font-family="Marianne, Arial, sans-serif" font-size="17" font-weight="800" fill="#123b7a">Parcours guidé</text>
  </g>
</svg>
